<svg width="200" height="200" viewBox="0 0 200 200" fill="none" xmlns="http://www.w3.org/2000/svg">
<rect width="200" height="200" rx="4" fill="#F2F5F8"/>
<path d="M65 106.667H65.0133M65 96.6667V101.667M62.625 88.695L50.8617 108.333C50.6193 108.753 50.4911 109.23 50.4898 109.715C50.4886 110.199 50.6142 110.676 50.8544 111.098C51.0946 111.519 51.4408 111.87 51.8588 112.116C52.2767 112.362 52.7517 112.494 53.2367 112.5H76.7633C77.2485 112.495 77.7238 112.363 78.1421 112.117C78.5603 111.871 78.9068 111.52 79.147 111.098C79.3873 110.677 79.5129 110.2 79.5114 109.715C79.5098 109.23 79.3812 108.753 79.1383 108.333L67.3767 88.695C67.1293 88.2865 66.7807 87.9488 66.3647 87.7144C65.9487 87.48 65.4792 87.3568 65.0017 87.3568C64.5241 87.3568 64.0547 87.48 63.6386 87.7144C63.2226 87.9488 62.8741 88.2865 62.6267 88.695" stroke="#CED5DE" stroke-width="3" stroke-miterlimit="10" stroke-linecap="round" stroke-linejoin="round"/>
<path d="M114.424 103.387V106.059H95.9316V104.143L107.393 86.4062H110.047L107.199 91.5391L99.623 103.387H114.424ZM110.855 86.4062V112H107.604V86.4062H110.855ZM133.443 97.1641V101.066C133.443 103.164 133.256 104.934 132.881 106.375C132.506 107.816 131.967 108.977 131.264 109.855C130.561 110.734 129.711 111.373 128.715 111.771C127.73 112.158 126.617 112.352 125.375 112.352C124.391 112.352 123.482 112.229 122.65 111.982C121.818 111.736 121.068 111.344 120.4 110.805C119.744 110.254 119.182 109.539 118.713 108.66C118.244 107.781 117.887 106.715 117.641 105.461C117.395 104.207 117.271 102.742 117.271 101.066V97.1641C117.271 95.0664 117.459 93.3086 117.834 91.8906C118.221 90.4727 118.766 89.3359 119.469 88.4805C120.172 87.6133 121.016 86.9922 122 86.6172C122.996 86.2422 124.109 86.0547 125.34 86.0547C126.336 86.0547 127.25 86.1777 128.082 86.4238C128.926 86.6582 129.676 87.0391 130.332 87.5664C130.988 88.082 131.545 88.7734 132.002 89.6406C132.471 90.4961 132.828 91.5449 133.074 92.7871C133.32 94.0293 133.443 95.4883 133.443 97.1641ZM130.174 101.594V96.6191C130.174 95.4707 130.104 94.4629 129.963 93.5957C129.834 92.7168 129.641 91.9668 129.383 91.3457C129.125 90.7246 128.797 90.2207 128.398 89.834C128.012 89.4473 127.561 89.166 127.045 88.9902C126.541 88.8027 125.973 88.709 125.34 88.709C124.566 88.709 123.881 88.8555 123.283 89.1484C122.686 89.4297 122.182 89.8809 121.771 90.502C121.373 91.123 121.068 91.9375 120.857 92.9453C120.646 93.9531 120.541 95.1777 120.541 96.6191V101.594C120.541 102.742 120.605 103.756 120.734 104.635C120.875 105.514 121.08 106.275 121.35 106.92C121.619 107.553 121.947 108.074 122.334 108.484C122.721 108.895 123.166 109.199 123.67 109.398C124.186 109.586 124.754 109.68 125.375 109.68C126.172 109.68 126.869 109.527 127.467 109.223C128.064 108.918 128.562 108.443 128.961 107.799C129.371 107.143 129.676 106.305 129.875 105.285C130.074 104.254 130.174 103.023 130.174 101.594ZM154.924 103.387V106.059H136.432V104.143L147.893 86.4062H150.547L147.699 91.5391L140.123 103.387H154.924ZM151.355 86.4062V112H148.104V86.4062H151.355Z" fill="#CED5DE"/>
</svg>
