<svg width="200" height="200" viewBox="0 0 200 200" fill="none" xmlns="http://www.w3.org/2000/svg">
<rect width="200" height="200" rx="4" fill="#F2F5F8"/>
<path d="M0 167H200V196C200 198.209 198.209 200 196 200H4C1.79086 200 0 198.209 0 196V167Z" fill="#CED5DE"/>
<rect x="10" y="174" width="30" height="10" fill="#F2F5F8"/>
<rect x="74" y="174" width="18" height="4" fill="#F2F5F8"/>
<rect x="74" y="181" width="18" height="4" fill="#F2F5F8"/>
<rect x="74" y="188" width="18" height="4" fill="#F2F5F8"/>
<rect x="104" y="174" width="18" height="4" fill="#F2F5F8"/>
<rect x="104" y="181" width="18" height="4" fill="#F2F5F8"/>
<rect x="104" y="188" width="18" height="4" fill="#F2F5F8"/>
<rect x="134" y="174" width="18" height="4" fill="#F2F5F8"/>
<rect x="134" y="181" width="18" height="4" fill="#F2F5F8"/>
<rect x="134" y="188" width="18" height="4" fill="#F2F5F8"/>
<rect x="164" y="174" width="18" height="4" fill="#F2F5F8"/>
<rect x="164" y="181" width="18" height="4" fill="#F2F5F8"/>
<rect x="164" y="188" width="18" height="4" fill="#F2F5F8"/>
</svg>
