<svg width="68" height="67" viewBox="0 0 68 67" fill="none" xmlns="http://www.w3.org/2000/svg">
<path fill-rule="evenodd" clip-rule="evenodd" d="M38 63H30C22.458 63 18.686 63 16.344 60.656C14.002 58.312 14 54.542 14 47L14 20C14 12.458 14 8.686 16.344 6.344C18.688 4.002 22.478 4 30.06 4C31.272 4 32.242 4 33.06 4.034C33.0333 4.194 33.02 4.35667 33.02 4.522L33 10.19C33 12.384 33 14.324 33.21 15.886C33.438 17.58 33.96 19.274 35.344 20.658C36.724 22.038 38.42 22.562 40.114 22.79C41.676 23 43.616 23 45.81 23H53.914C54 24.068 54 44.38 54 46.126V47C54 54.542 54 58.314 51.656 60.656C49.312 62.998 45.542 63 38 63Z" fill="#7A7A7A"/>
<path d="M33.02 4.52001L33 10.19C33 12.384 33 14.322 33.21 15.886C33.438 17.58 33.96 19.274 35.344 20.656C36.724 22.038 38.42 22.562 40.114 22.79C41.676 23 43.616 23 45.81 23H53.914C53.9407 23.3093 53.9593 23.6427 53.97 24H54C54 23.464 54 23.196 53.98 22.88C53.8281 20.979 53.1662 19.1543 52.064 17.598C51.876 17.342 51.748 17.19 51.494 16.884C49.908 14.988 47.82 12.624 46 11C44.38 9.55201 42.158 7.97001 40.22 6.67801C38.556 5.56601 37.724 5.01001 36.582 4.59801C36.2494 4.48052 35.9117 4.37775 35.57 4.29001C34.802 4.10001 34.054 4.03401 33 4.01001L33.02 4.52001Z" fill="#BBBBBB"/>
<path d="M25.2031 39.2969H42.5469" stroke="white" stroke-width="2" stroke-miterlimit="1.41421"/>
<path d="M25.2031 33.6031C25.2031 32.763 25.2031 32.343 25.3666 32.0221C25.5104 31.7399 25.7399 31.5104 26.0221 31.3666C26.343 31.2031 26.763 31.2031 27.6031 31.2031H31.113C31.4887 31.2031 31.6766 31.2031 31.8471 31.2549C31.998 31.3008 32.1385 31.3759 32.2603 31.4761C32.398 31.5893 32.5022 31.7456 32.7106 32.0582L33.8832 33.8173C34.0915 34.1299 34.1957 34.2862 34.3334 34.3994C34.4553 34.4995 34.5957 34.5747 34.7467 34.6206C34.9172 34.6723 35.105 34.6723 35.4808 34.6723H40.1469C40.987 34.6723 41.407 34.6723 41.7279 34.8358C42.0101 34.9796 42.2396 35.2091 42.3834 35.4914C42.5469 35.8122 42.5469 36.2323 42.5469 37.0723V44.9911C42.5469 45.8312 42.5469 46.2512 42.3834 46.5721C42.2396 46.8543 42.0101 47.0838 41.7279 47.2276C41.407 47.3911 40.987 47.3911 40.1469 47.3911H27.6031C26.763 47.3911 26.343 47.3911 26.0221 47.2276C25.7399 47.0838 25.5104 46.8543 25.3666 46.5721C25.2031 46.2512 25.2031 45.8312 25.2031 44.9911V33.6031Z" stroke="white" stroke-width="2"/>
</svg>
