<svg width="16" height="16" viewBox="0 0 16 16" fill="none" xmlns="http://www.w3.org/2000/svg">
<circle cx="8" cy="8" r="8" fill="#6D28D9"/>
<path d="M6.375 8.5C6.67337 8.5 6.95952 8.61853 7.1705 8.8295C7.38147 9.04048 7.5 9.32663 7.5 9.625V11.375C7.5 11.6734 7.38147 11.9595 7.1705 12.1705C6.95952 12.3815 6.67337 12.5 6.375 12.5H4.625C4.32663 12.5 4.04048 12.3815 3.8295 12.1705C3.61853 11.9595 3.5 11.6734 3.5 11.375V9.625C3.5 9.32663 3.61853 9.04048 3.8295 8.8295C4.04048 8.61853 4.32663 8.5 4.625 8.5H6.375ZM11.375 8.5C11.6734 8.5 11.9595 8.61853 12.1705 8.8295C12.3815 9.04048 12.5 9.32663 12.5 9.625V11.375C12.5 11.6734 12.3815 11.9595 12.1705 12.1705C11.9595 12.3815 11.6734 12.5 11.375 12.5H9.625C9.32663 12.5 9.04048 12.3815 8.8295 12.1705C8.61853 11.9595 8.5 11.6734 8.5 11.375V9.625C8.5 9.32663 8.61853 9.04048 8.8295 8.8295C9.04048 8.61853 9.32663 8.5 9.625 8.5H11.375ZM6.375 9.25H4.625C4.52554 9.25 4.43016 9.28951 4.35983 9.35984C4.28951 9.43016 4.25 9.52554 4.25 9.625V11.375C4.25 11.582 4.418 11.75 4.625 11.75H6.375C6.47446 11.75 6.56984 11.7105 6.64016 11.6402C6.71049 11.5698 6.75 11.4745 6.75 11.375V9.625C6.75 9.52554 6.71049 9.43016 6.64016 9.35984C6.56984 9.28951 6.47446 9.25 6.375 9.25ZM11.375 9.25H9.625C9.52554 9.25 9.43016 9.28951 9.35984 9.35984C9.28951 9.43016 9.25 9.52554 9.25 9.625V11.375C9.25 11.582 9.418 11.75 9.625 11.75H11.375C11.4745 11.75 11.5698 11.7105 11.6402 11.6402C11.7105 11.5698 11.75 11.4745 11.75 11.375V9.625C11.75 9.52554 11.7105 9.43016 11.6402 9.35984C11.5698 9.28951 11.4745 9.25 11.375 9.25ZM6.375 3.5C6.67337 3.5 6.95952 3.61853 7.1705 3.8295C7.38147 4.04048 7.5 4.32663 7.5 4.625V6.375C7.5 6.67337 7.38147 6.95952 7.1705 7.1705C6.95952 7.38147 6.67337 7.5 6.375 7.5H4.625C4.32663 7.5 4.04048 7.38147 3.8295 7.1705C3.61853 6.95952 3.5 6.67337 3.5 6.375V4.625C3.5 4.32663 3.61853 4.04048 3.8295 3.8295C4.04048 3.61853 4.32663 3.5 4.625 3.5H6.375ZM11.375 3.5C11.6734 3.5 11.9595 3.61853 12.1705 3.8295C12.3815 4.04048 12.5 4.32663 12.5 4.625V6.375C12.5 6.67337 12.3815 6.95952 12.1705 7.1705C11.9595 7.38147 11.6734 7.5 11.375 7.5H9.625C9.32663 7.5 9.04048 7.38147 8.8295 7.1705C8.61853 6.95952 8.5 6.67337 8.5 6.375V4.625C8.5 4.32663 8.61853 4.04048 8.8295 3.8295C9.04048 3.61853 9.32663 3.5 9.625 3.5H11.375ZM6.375 4.25H4.625C4.52554 4.25 4.43016 4.28951 4.35983 4.35983C4.28951 4.43016 4.25 4.52554 4.25 4.625V6.375C4.25 6.582 4.418 6.75 4.625 6.75H6.375C6.47446 6.75 6.56984 6.71049 6.64016 6.64016C6.71049 6.56984 6.75 6.47446 6.75 6.375V4.625C6.75 4.52554 6.71049 4.43016 6.64016 4.35983C6.56984 4.28951 6.47446 4.25 6.375 4.25ZM11.375 4.25H9.625C9.52554 4.25 9.43016 4.28951 9.35984 4.35983C9.28951 4.43016 9.25 4.52554 9.25 4.625V6.375C9.25 6.582 9.418 6.75 9.625 6.75H11.375C11.4745 6.75 11.5698 6.71049 11.6402 6.64016C11.7105 6.56984 11.75 6.47446 11.75 6.375V4.625C11.75 4.52554 11.7105 4.43016 11.6402 4.35983C11.5698 4.28951 11.4745 4.25 11.375 4.25Z" fill="white"/>
</svg>
