<svg width="16" height="16" viewBox="0 0 16 16" fill="none" xmlns="http://www.w3.org/2000/svg">
<g clip-path="url(#clip0_467_1240)">
<path d="M8 0C3.592 0 0 3.592 0 8C0 12.408 3.592 16 8 16C12.408 16 16 12.408 16 8C16 3.592 12.408 0 8 0ZM0.808 8C0.808 6.96 1.032 5.968 1.432 5.072L4.864 14.472C2.464 13.304 0.808 10.848 0.808 8ZM8 15.192C7.296 15.192 6.616 15.088 5.968 14.896L8.128 8.624L10.336 14.68C10.352 14.712 10.368 14.752 10.384 14.776C9.64 15.048 8.84 15.192 8 15.192ZM8.992 4.624C9.424 4.6 9.816 4.552 9.816 4.552C10.2 4.504 10.16 3.936 9.768 3.96C9.768 3.96 8.6 4.048 7.848 4.048C7.144 4.048 5.952 3.96 5.952 3.96C5.568 3.944 5.52 4.536 5.912 4.56C5.912 4.56 6.28 4.608 6.664 4.632L7.784 7.704L6.208 12.424L3.592 4.624C4.024 4.608 4.416 4.56 4.416 4.56C4.8 4.512 4.76 3.944 4.368 3.968C4.368 3.968 3.2 4.056 2.448 4.056C2.312 4.056 2.152 4.056 1.984 4.048C3.28 2.096 5.488 0.808 8 0.808C9.872 0.808 11.576 1.52 12.856 2.696C12.824 2.696 12.792 2.688 12.76 2.688C12.056 2.688 11.552 3.304 11.552 3.968C11.552 4.56 11.896 5.064 12.256 5.656C12.528 6.136 12.848 6.752 12.848 7.64C12.848 8.256 12.608 8.968 12.304 9.968L11.584 12.368L8.992 4.624ZM14.312 4.552C15.2102 6.1966 15.431 8.1268 14.9274 9.93175C14.4239 11.7367 13.2358 13.2738 11.616 14.216L13.816 7.864C14.224 6.84 14.36 6.016 14.36 5.288C14.36 5.024 14.344 4.776 14.312 4.552Z" fill="#0073AA"/>
</g>
<defs>
<clipPath id="clip0_467_1240">
<rect width="16" height="16" fill="white"/>
</clipPath>
</defs>
</svg>