<svg width="305" height="60" viewBox="0 0 305 60" fill="none" xmlns="http://www.w3.org/2000/svg">
<rect width="60" height="60" rx="7" fill="url(#paint0_linear_2059_280)"/>
<path d="M23.405 36.7607H13.2002V15.5996H42.9036V18.3598" stroke="white" stroke-width="2"/>
<rect x="20.3066" y="40.9922" width="3.28013" height="3.31218" fill="white"/>
<rect x="27.959" y="29.2168" width="9.11147" height="13.6167" stroke="white" stroke-width="2"/>
<path d="M29.4199 23.1445H45.8206V42.6496H41.4471" stroke="white" stroke-width="2"/>
<path d="M86.96 32L81.412 21.93H79.854V32H73.356V5.324H84.262C86.3647 5.324 88.1507 5.69133 89.62 6.426C91.1147 7.16066 92.2293 8.174 92.964 9.466C93.6987 10.7327 94.066 12.1513 94.066 13.722C94.066 15.4953 93.5593 17.0787 92.546 18.472C91.558 19.8653 90.0887 20.8533 88.138 21.436L94.294 32H86.96ZM79.854 17.332H83.882C85.0727 17.332 85.9593 17.0407 86.542 16.458C87.15 15.8753 87.454 15.052 87.454 13.988C87.454 12.9747 87.15 12.1767 86.542 11.594C85.9593 11.0113 85.0727 10.72 83.882 10.72H79.854V17.332ZM104.643 10.53V15.926H113.345V20.942H104.643V26.794H114.485V32H98.1451V5.324H114.485V10.53H104.643ZM128.356 32.266C126.405 32.266 124.657 31.9493 123.112 31.316C121.566 30.6827 120.325 29.7453 119.388 28.504C118.476 27.2627 117.994 25.768 117.944 24.02H124.86C124.961 25.008 125.303 25.768 125.886 26.3C126.468 26.8067 127.228 27.06 128.166 27.06C129.128 27.06 129.888 26.8447 130.446 26.414C131.003 25.958 131.282 25.3373 131.282 24.552C131.282 23.8933 131.054 23.3487 130.598 22.918C130.167 22.4873 129.622 22.1327 128.964 21.854C128.33 21.5753 127.418 21.2587 126.228 20.904C124.505 20.372 123.099 19.84 122.01 19.308C120.92 18.776 119.983 17.9907 119.198 16.952C118.412 15.9133 118.02 14.558 118.02 12.886C118.02 10.4033 118.919 8.46533 120.718 7.072C122.516 5.65333 124.86 4.944 127.748 4.944C130.686 4.944 133.055 5.65333 134.854 7.072C136.652 8.46533 137.615 10.416 137.742 12.924H130.712C130.661 12.0627 130.344 11.3913 129.762 10.91C129.179 10.4033 128.432 10.15 127.52 10.15C126.734 10.15 126.101 10.3653 125.62 10.796C125.138 11.2013 124.898 11.7967 124.898 12.582C124.898 13.4433 125.303 14.1147 126.114 14.596C126.924 15.0773 128.191 15.5967 129.914 16.154C131.636 16.7367 133.03 17.294 134.094 17.826C135.183 18.358 136.12 19.1307 136.906 20.144C137.691 21.1573 138.084 22.462 138.084 24.058C138.084 25.578 137.691 26.9587 136.906 28.2C136.146 29.4413 135.031 30.4293 133.562 31.164C132.092 31.8987 130.357 32.266 128.356 32.266ZM162.413 13.912C162.413 15.4573 162.058 16.876 161.349 18.168C160.639 19.4347 159.55 20.4607 158.081 21.246C156.611 22.0313 154.787 22.424 152.609 22.424H148.581V32H142.083V5.324H152.609C154.737 5.324 156.535 5.69133 158.005 6.426C159.474 7.16066 160.576 8.174 161.311 9.466C162.045 10.758 162.413 12.24 162.413 13.912ZM152.115 17.256C153.356 17.256 154.281 16.9647 154.889 16.382C155.497 15.7993 155.801 14.976 155.801 13.912C155.801 12.848 155.497 12.0247 154.889 11.442C154.281 10.8593 153.356 10.568 152.115 10.568H148.581V17.256H152.115ZM178.411 32.266C175.903 32.266 173.598 31.6833 171.495 30.518C169.418 29.3527 167.759 27.7313 166.517 25.654C165.301 23.5513 164.693 21.1953 164.693 18.586C164.693 15.9767 165.301 13.6333 166.517 11.556C167.759 9.47867 169.418 7.85733 171.495 6.692C173.598 5.52667 175.903 4.944 178.411 4.944C180.919 4.944 183.212 5.52667 185.289 6.692C187.392 7.85733 189.039 9.47867 190.229 11.556C191.445 13.6333 192.053 15.9767 192.053 18.586C192.053 21.1953 191.445 23.5513 190.229 25.654C189.013 27.7313 187.367 29.3527 185.289 30.518C183.212 31.6833 180.919 32.266 178.411 32.266ZM178.411 26.338C180.539 26.338 182.237 25.6287 183.503 24.21C184.795 22.7913 185.441 20.9167 185.441 18.586C185.441 16.23 184.795 14.3553 183.503 12.962C182.237 11.5433 180.539 10.834 178.411 10.834C176.258 10.834 174.535 11.5307 173.243 12.924C171.977 14.3173 171.343 16.2047 171.343 18.586C171.343 20.942 171.977 22.8293 173.243 24.248C174.535 25.6413 176.258 26.338 178.411 26.338ZM219.533 32H213.035L202.167 15.546V32H195.669V5.324H202.167L213.035 21.854V5.324H219.533V32ZM233.895 32.266C231.944 32.266 230.196 31.9493 228.651 31.316C227.105 30.6827 225.864 29.7453 224.927 28.504C224.015 27.2627 223.533 25.768 223.483 24.02H230.399C230.5 25.008 230.842 25.768 231.425 26.3C232.007 26.8067 232.767 27.06 233.705 27.06C234.667 27.06 235.427 26.8447 235.985 26.414C236.542 25.958 236.821 25.3373 236.821 24.552C236.821 23.8933 236.593 23.3487 236.137 22.918C235.706 22.4873 235.161 22.1327 234.503 21.854C233.869 21.5753 232.957 21.2587 231.767 20.904C230.044 20.372 228.638 19.84 227.549 19.308C226.459 18.776 225.522 17.9907 224.737 16.952C223.951 15.9133 223.559 14.558 223.559 12.886C223.559 10.4033 224.458 8.46533 226.257 7.072C228.055 5.65333 230.399 4.944 233.287 4.944C236.225 4.944 238.594 5.65333 240.393 7.072C242.191 8.46533 243.154 10.416 243.281 12.924H236.251C236.2 12.0627 235.883 11.3913 235.301 10.91C234.718 10.4033 233.971 10.15 233.059 10.15C232.273 10.15 231.64 10.3653 231.159 10.796C230.677 11.2013 230.437 11.7967 230.437 12.582C230.437 13.4433 230.842 14.1147 231.653 14.596C232.463 15.0773 233.73 15.5967 235.453 16.154C237.175 16.7367 238.569 17.294 239.633 17.826C240.722 18.358 241.659 19.1307 242.445 20.144C243.23 21.1573 243.623 22.462 243.623 24.058C243.623 25.578 243.23 26.9587 242.445 28.2C241.685 29.4413 240.57 30.4293 239.101 31.164C237.631 31.8987 235.896 32.266 233.895 32.266ZM254.12 5.324V32H247.622V5.324H254.12ZM283.871 5.324L274.409 32H266.277L256.815 5.324H263.731L270.343 25.464L276.993 5.324H283.871ZM293.084 10.53V15.926H301.786V20.942H293.084V26.794H302.926V32H286.586V5.324H302.926V10.53H293.084Z" fill="#372058"/>
<path d="M76.662 55.133C75.788 55.133 75.0027 54.981 74.306 54.677C73.622 54.3603 73.0837 53.9297 72.691 53.385C72.2983 52.8277 72.0957 52.188 72.083 51.466H73.926C73.9893 52.0867 74.2427 52.6123 74.686 53.043C75.142 53.461 75.8007 53.67 76.662 53.67C77.4853 53.67 78.1313 53.4673 78.6 53.062C79.0813 52.644 79.322 52.112 79.322 51.466C79.322 50.9593 79.1827 50.5477 78.904 50.231C78.6253 49.9143 78.277 49.6737 77.859 49.509C77.441 49.3443 76.8773 49.167 76.168 48.977C75.294 48.749 74.591 48.521 74.059 48.293C73.5397 48.065 73.09 47.7103 72.71 47.229C72.3427 46.735 72.159 46.0763 72.159 45.253C72.159 44.531 72.3427 43.8913 72.71 43.334C73.0773 42.7767 73.5903 42.346 74.249 42.042C74.9203 41.738 75.6867 41.586 76.548 41.586C77.7893 41.586 78.8027 41.8963 79.588 42.517C80.386 43.1377 80.8357 43.961 80.937 44.987H79.037C78.9737 44.4803 78.7077 44.037 78.239 43.657C77.7703 43.2643 77.1497 43.068 76.377 43.068C75.655 43.068 75.066 43.258 74.61 43.638C74.154 44.0053 73.926 44.5247 73.926 45.196C73.926 45.6773 74.059 46.07 74.325 46.374C74.6037 46.678 74.9393 46.9123 75.332 47.077C75.7373 47.229 76.301 47.4063 77.023 47.609C77.897 47.8497 78.6 48.0903 79.132 48.331C79.664 48.559 80.12 48.92 80.5 49.414C80.88 49.8953 81.07 50.554 81.07 51.39C81.07 52.036 80.899 52.644 80.557 53.214C80.215 53.784 79.7083 54.2463 79.037 54.601C78.3657 54.9557 77.574 55.133 76.662 55.133ZM94.8054 41.757V43.163H91.1954V55H89.4664V43.163H85.8374V41.757H94.8054ZM107.802 52.055H102.026L100.962 55H99.1377L103.926 41.833H105.921L110.69 55H108.866L107.802 52.055ZM107.308 50.649L104.914 43.961L102.52 50.649H107.308ZM122.789 55L119.635 49.585H117.545V55H115.816V41.757H120.091C121.092 41.757 121.934 41.928 122.618 42.27C123.315 42.612 123.834 43.0743 124.176 43.657C124.518 44.2397 124.689 44.9047 124.689 45.652C124.689 46.564 124.423 47.3683 123.891 48.065C123.372 48.7617 122.587 49.224 121.535 49.452L124.86 55H122.789ZM117.545 48.198H120.091C121.029 48.198 121.732 47.97 122.2 47.514C122.669 47.0453 122.903 46.4247 122.903 45.652C122.903 44.8667 122.669 44.2587 122.2 43.828C121.744 43.3973 121.041 43.182 120.091 43.182H117.545V48.198ZM138.567 41.757V43.163H134.957V55H133.228V43.163H129.599V41.757H138.567ZM145.464 43.163V47.59H150.29V49.015H145.464V53.575H150.86V55H143.735V41.738H150.86V43.163H145.464ZM163.489 55L160.335 49.585H158.245V55H156.516V41.757H160.791C161.792 41.757 162.634 41.928 163.318 42.27C164.015 42.612 164.534 43.0743 164.876 43.657C165.218 44.2397 165.389 44.9047 165.389 45.652C165.389 46.564 165.123 47.3683 164.591 48.065C164.072 48.7617 163.287 49.224 162.235 49.452L165.56 55H163.489ZM158.245 48.198H160.791C161.729 48.198 162.432 47.97 162.9 47.514C163.369 47.0453 163.603 46.4247 163.603 45.652C163.603 44.8667 163.369 44.2587 162.9 43.828C162.444 43.3973 161.741 43.182 160.791 43.182H158.245V48.198ZM187.372 41.757V43.163H183.762V55H182.033V43.163H178.404V41.757H187.372ZM194.27 43.163V47.59H199.096V49.015H194.27V53.575H199.666V55H192.541V41.738H199.666V43.163H194.27ZM218.755 41.852V55H217.026V45.196L212.656 55H211.44L207.051 45.177V55H205.322V41.852H207.184L212.048 52.72L216.912 41.852H218.755ZM233.581 45.633C233.581 46.735 233.201 47.6533 232.441 48.388C231.694 49.11 230.548 49.471 229.002 49.471H226.456V55H224.727V41.757H229.002C230.497 41.757 231.631 42.118 232.403 42.84C233.189 43.562 233.581 44.493 233.581 45.633ZM229.002 48.046C229.965 48.046 230.674 47.837 231.13 47.419C231.586 47.001 231.814 46.4057 231.814 45.633C231.814 43.999 230.877 43.182 229.002 43.182H226.456V48.046H229.002ZM240.499 53.594H245.135V55H238.77V41.757H240.499V53.594ZM257.839 52.055H252.063L250.999 55H249.175L253.963 41.833H255.958L260.727 55H258.903L257.839 52.055ZM257.345 50.649L254.951 43.961L252.557 50.649H257.345ZM274.005 41.757V43.163H270.395V55H268.666V43.163H265.037V41.757H274.005ZM280.902 43.163V47.59H285.728V49.015H280.902V53.575H286.298V55H279.173V41.738H286.298V43.163H280.902ZM296.154 55.133C295.28 55.133 294.494 54.981 293.798 54.677C293.114 54.3603 292.575 53.9297 292.183 53.385C291.79 52.8277 291.587 52.188 291.575 51.466H293.418C293.481 52.0867 293.734 52.6123 294.178 53.043C294.634 53.461 295.292 53.67 296.154 53.67C296.977 53.67 297.623 53.4673 298.092 53.062C298.573 52.644 298.814 52.112 298.814 51.466C298.814 50.9593 298.674 50.5477 298.396 50.231C298.117 49.9143 297.769 49.6737 297.351 49.509C296.933 49.3443 296.369 49.167 295.66 48.977C294.786 48.749 294.083 48.521 293.551 48.293C293.031 48.065 292.582 47.7103 292.202 47.229C291.834 46.735 291.651 46.0763 291.651 45.253C291.651 44.531 291.834 43.8913 292.202 43.334C292.569 42.7767 293.082 42.346 293.741 42.042C294.412 41.738 295.178 41.586 296.04 41.586C297.281 41.586 298.294 41.8963 299.08 42.517C299.878 43.1377 300.327 43.961 300.429 44.987H298.529C298.465 44.4803 298.199 44.037 297.731 43.657C297.262 43.2643 296.641 43.068 295.869 43.068C295.147 43.068 294.558 43.258 294.102 43.638C293.646 44.0053 293.418 44.5247 293.418 45.196C293.418 45.6773 293.551 46.07 293.817 46.374C294.095 46.678 294.431 46.9123 294.824 47.077C295.229 47.229 295.793 47.4063 296.515 47.609C297.389 47.8497 298.092 48.0903 298.624 48.331C299.156 48.559 299.612 48.92 299.992 49.414C300.372 49.8953 300.562 50.554 300.562 51.39C300.562 52.036 300.391 52.644 300.049 53.214C299.707 53.784 299.2 54.2463 298.529 54.601C297.857 54.9557 297.066 55.133 296.154 55.133Z" fill="#6C21DC"/>
<defs>
<linearGradient id="paint0_linear_2059_280" x1="30" y1="0" x2="30" y2="60" gradientUnits="userSpaceOnUse">
<stop stop-color="#6C21DC"/>
<stop offset="1" stop-color="#80B4F6"/>
</linearGradient>
</defs>
</svg>
