<svg width="16" height="16" viewBox="0 0 16 16" fill="none" xmlns="http://www.w3.org/2000/svg">
<path d="M8.00016 1.33334C4.32683 1.33334 1.3335 4.32668 1.3335 8.00001C1.3335 11.6733 4.32683 14.6667 8.00016 14.6667C11.6735 14.6667 14.6668 11.6733 14.6668 8.00001C14.6668 4.32668 11.6735 1.33334 8.00016 1.33334ZM2.00683 8.00001C2.00683 7.13334 2.1935 6.30668 2.52683 5.56001L5.38683 13.3933C3.38683 12.42 2.00683 10.3733 2.00683 8.00001ZM8.00016 13.9933C7.4135 13.9933 6.84683 13.9067 6.30683 13.7467L8.10683 8.52001L9.94683 13.5667C9.96016 13.5933 9.9735 13.6267 9.98683 13.6467C9.36683 13.8733 8.70016 13.9933 8.00016 13.9933ZM8.82683 5.18668C9.18683 5.16668 9.5135 5.12668 9.5135 5.12668C9.8335 5.08668 9.80016 4.61334 9.4735 4.63334C9.4735 4.63334 8.50016 4.70668 7.8735 4.70668C7.28683 4.70668 6.2935 4.63334 6.2935 4.63334C5.9735 4.62001 5.9335 5.11334 6.26016 5.13334C6.26016 5.13334 6.56683 5.17334 6.88683 5.19334L7.82016 7.75334L6.50683 11.6867L4.32683 5.18668C4.68683 5.17334 5.0135 5.13334 5.0135 5.13334C5.3335 5.09334 5.30016 4.62001 4.9735 4.64001C4.9735 4.64001 4.00016 4.71334 3.3735 4.71334C3.26016 4.71334 3.12683 4.71334 2.98683 4.70668C4.06683 3.08001 5.90683 2.00668 8.00016 2.00668C9.56016 2.00668 10.9802 2.60001 12.0468 3.58001C12.0202 3.58001 11.9935 3.57334 11.9668 3.57334C11.3802 3.57334 10.9602 4.08668 10.9602 4.64001C10.9602 5.13334 11.2468 5.55334 11.5468 6.04668C11.7735 6.44668 12.0402 6.96001 12.0402 7.70001C12.0402 8.21334 11.8402 8.80668 11.5868 9.64001L10.9868 11.64L8.82683 5.18668ZM13.2602 5.12668C14.0086 6.49717 14.1926 8.10568 13.773 9.6098C13.3534 11.1139 12.3633 12.3949 11.0135 13.18L12.8468 7.88668C13.1868 7.03334 13.3002 6.34668 13.3002 5.74001C13.3002 5.52001 13.2868 5.31334 13.2602 5.12668Z" fill="#0073AA"/>
</svg>